<svg width="695" height="126" viewBox="0 0 695 126" fill="none" xmlns="http://www.w3.org/2000/svg">
<path d="M143.04 1.29377L18.3665 1.28639L1.00084 102.52L15.7289 124.956L92.0061 124.961L139.351 124.964L139.353 124.964L179.856 124.966L231.409 124.969L663.793 124.969C674.009 122.813 684.648 120.146 687.793 98.6458L694.439 43.8542L671.793 20.5001C667.96 14.0997 656.093 1.299 639.293 1.299C618.293 1.299 606.793 6.5 604.293 12C605.893 5.6 606.96 2.19933 607.293 1.299L571.793 1.299L569.793 12L569.793 1.299L539.293 1.299L527.293 16.5L520.793 1.299L483.793 1.299L486.793 15L481.293 1.299L432.793 1.299L425.293 20C423.96 13.7663 418.293 1.299 406.293 1.299C394.293 1.299 365.96 1.29775 353.293 1.29713L351.793 13.5C350.627 9.43362 344.993 1.30049 331.793 1.299C318.593 1.2975 293.627 1.29838 282.793 1.299L276.293 32.5L252.793 11C252.793 11 240.092 1.30318 228.793 1.299C207.751 1.29775 201.286 8.41098 197.749 12.7885L199.854 1.29713L158.822 1.2947L156.191 12.786C156.612 4.46841 147.599 1.65885 143.04 1.29377Z" fill="#3182F6" stroke="#3182F6"/>
<path d="M615.117 68.854C615.117 73.776 618.648 76.237 625.71 76.237C632.844 76.237 636.41 74.0257 636.41 69.603C636.41 67.249 635.198 65.323 632.772 63.825C630.347 62.327 627.387 61.0787 623.891 60.08C620.467 59.0813 617.008 57.94 613.512 56.656C610.088 55.3007 607.164 53.232 604.738 50.45C602.313 47.5967 601.1 44.0657 601.1 39.857C601.1 21.9523 612.621 13 635.661 13C644.079 13 650.427 14.605 654.707 17.815C659.059 20.9537 661.234 25.3407 661.234 30.976C661.234 33.0447 660.949 35.042 660.378 36.968C659.879 38.8227 659.344 40.1423 658.773 40.927L657.917 42.211H638.978C640.548 40.5703 641.332 38.5017 641.332 36.005C641.332 31.3683 638.301 29.05 632.237 29.05C624.605 29.05 620.788 31.4753 620.788 36.326C620.788 38.7513 622.001 40.6773 624.426 42.104C626.852 43.5307 629.776 44.672 633.2 45.528C636.696 46.3127 640.191 47.3113 643.686 48.524C647.182 49.7367 650.142 51.7697 652.567 54.623C654.993 57.405 656.205 61.043 656.205 65.537C656.205 74.5963 653.495 81.3373 648.073 85.76C642.652 90.1113 634.306 92.287 623.035 92.287C611.765 92.287 604.061 90.2897 599.923 86.295C596.856 83.299 595.322 79.1617 595.322 73.883C595.322 71.8857 595.536 69.71 595.964 67.356L596.285 65.644H615.545L615.331 66.928C615.189 67.6413 615.117 68.2833 615.117 68.854Z" fill="white"/>
<path d="M593.047 13.749L579.565 90.789H560.198L573.787 13.749H593.047Z" fill="white"/>
<path d="M565.39 13.749L535.216 52.59L551.801 90.789H529.866L519.38 66.179L501.725 90.789H479.79L508.145 52.59L493.379 13.749H515.314L524.195 38.787L543.455 13.749H565.39Z" fill="white"/>
<path d="M456.076 90.789L456.718 73.99H438.849L433.606 90.789H413.169L440.668 13.749H475.978L476.406 90.789H456.076ZM451.689 32.474L443.236 59.652H457.253L458.43 32.474H451.689Z" fill="white"/>
<path d="M392.385 13.749C400.517 13.749 406.295 15.5324 409.719 19.099C412.287 21.8097 413.571 25.2337 413.571 29.371C413.571 30.7977 413.428 32.2957 413.143 33.865L411.645 42.211C410.789 46.8477 409.291 50.5927 407.151 53.446C405.082 56.2994 402.764 58.3324 400.196 59.545L409.933 90.789H388.319L379.331 62.006H372.697L368.31 90.789H347.766L361.355 13.749H392.385ZM385.644 30.441H377.619L374.837 49.059H382.327C386.107 49.059 388.818 48.1674 390.459 46.384C392.099 44.5294 392.92 42.104 392.92 39.108C392.92 33.33 390.494 30.441 385.644 30.441Z" fill="white"/>
<path d="M315.698 67.356H302.965L298.792 90.789H279.532L293.121 13.749H325.756C333.817 13.749 339.559 15.6037 342.983 19.313C345.48 22.1664 346.728 25.8044 346.728 30.227C346.728 31.725 346.586 33.2944 346.3 34.935L344.16 47.026C343.09 52.9467 339.952 57.833 334.744 61.685C329.537 65.4657 323.188 67.356 315.698 67.356ZM319.015 30.441H309.385L305.854 50.664H315.377C321.227 50.664 324.615 48.0604 325.542 42.853L326.291 38.466C326.434 37.824 326.505 36.968 326.505 35.898C326.505 34.828 325.97 33.651 324.9 32.367C323.83 31.083 321.869 30.441 319.015 30.441Z" fill="white"/>
<path d="M211.619 92.287C201.419 92.287 194.357 90.0757 190.433 85.653C187.723 82.5143 186.367 78.1273 186.367 72.492C186.367 70.0667 186.617 67.463 187.116 64.681L191.503 40.071C194.713 22.0237 206.305 13 226.278 13C234.553 13 240.83 14.7833 245.11 18.35C249.39 21.8453 251.53 26.6603 251.53 32.795C251.53 35.6483 251.102 38.5017 250.246 41.355C249.462 44.137 248.677 46.2057 247.892 47.561L246.715 49.701H227.776C230.13 46.9903 231.307 43.1383 231.307 38.145C231.307 35.5057 230.63 33.437 229.274 31.939C227.919 30.3697 225.922 29.585 223.282 29.585C216.078 29.585 211.798 33.5797 210.442 41.569L206.697 63.183C206.341 65.0377 206.162 66.8567 206.162 68.64C206.162 73.348 208.98 75.702 214.615 75.702C221.392 75.702 225.458 71.8857 226.813 64.253H246.073L245.538 67.356C242.685 83.9767 231.379 92.287 211.619 92.287Z" fill="white"/>
<path d="M182.915 13.749L169.433 90.789H150.066L163.655 13.749H182.915Z" fill="white"/>
<path d="M117.999 67.356H105.266L101.093 90.789H81.833L95.422 13.749H128.057C136.118 13.749 141.86 15.6037 145.284 19.313C147.781 22.1664 149.029 25.8044 149.029 30.227C149.029 31.725 148.886 33.2944 148.601 34.935L146.461 47.026C145.391 52.9467 142.252 57.833 137.045 61.685C131.838 65.4657 125.489 67.356 117.999 67.356ZM121.316 30.441H111.686L108.155 50.664H117.678C123.527 50.664 126.916 48.0604 127.843 42.853L128.592 38.466C128.735 37.824 128.806 36.968 128.806 35.898C128.806 34.828 128.271 33.651 127.201 32.367C126.131 31.083 124.169 30.441 121.316 30.441Z" fill="white"/>
<path d="M69.5079 90.789H15.7939L29.3829 13.749H83.0969L80.101 30.441H45.6469L43.1859 44.886H71.6479L68.6519 61.578H40.1899L38.0499 74.097H72.5039L69.5079 90.789Z" fill="white"/>
</svg>
