<svg width="740" height="180" viewBox="0 0 740 180" fill="none" xmlns="http://www.w3.org/2000/svg">
<g filter="url(#filter0_dd_975_1863)">
<path d="M143 13H31L14 109.5L31 130H228.5L263 146.5V130H659C681.5 130 692.5 124 697.5 101.5C697.5 101.5 706 51.5 708 38L686.5 13H647L645.5 19.5C640 17 632 13 616.5 13C602 13 590 18.5 587.5 19.5V13H516.5L512.5 18.5L509.5 13H409L406 20.5C401 16 391 13 385 13L339.5 13C339.333 14.3334 338 20.5 338 20.5C334.5 17 327 13 320 13H268.5L265.5 30C261.5 23.3333 248.9 12.6 228.5 13C219 13 213.5 12.5 199.5 18L200.5 13H160C159.833 14 159 18.5 159 18.5C156 16.5001 151.5 13 143 13Z" fill="url(#paint0_linear_975_1863)" stroke="white" stroke-width="4"/>
<path d="M596.357 79.0649C596.357 83.9869 599.888 86.4479 606.95 86.4479C614.083 86.4479 617.65 84.2366 617.65 79.8139C617.65 77.4599 616.437 75.5339 614.012 74.0359C611.586 72.5379 608.626 71.2896 605.131 70.2909C601.707 69.2923 598.247 68.1509 594.752 66.8669C591.328 65.5116 588.403 63.4429 585.978 60.6609C583.552 57.8076 582.34 54.2766 582.34 50.0679C582.34 32.1633 593.86 23.2109 616.901 23.2109C625.318 23.2109 631.667 24.8159 635.947 28.0259C640.298 31.1646 642.474 35.5516 642.474 41.1869C642.474 43.2556 642.188 45.2529 641.618 47.1789C641.118 49.0336 640.583 50.3533 640.013 51.1379L639.157 52.4219H620.218C621.787 50.7813 622.572 48.7126 622.572 46.2159C622.572 41.5793 619.54 39.2609 613.477 39.2609C605.844 39.2609 602.028 41.6863 602.028 46.5369C602.028 48.9623 603.24 50.8883 605.666 52.3149C608.091 53.7416 611.016 54.8829 614.44 55.7389C617.935 56.5236 621.43 57.5223 624.926 58.7349C628.421 59.9476 631.381 61.9806 633.807 64.8339C636.232 67.6159 637.445 71.2539 637.445 75.7479C637.445 84.8073 634.734 91.5483 629.313 95.9709C623.891 100.322 615.545 102.498 604.275 102.498C593.004 102.498 585.3 100.501 581.163 96.5059C578.095 93.5099 576.562 89.3726 576.562 84.0939C576.562 82.0966 576.776 79.9209 577.204 77.5669L577.525 75.8549H596.785L596.571 77.1389C596.428 77.8523 596.357 78.4943 596.357 79.0649Z" fill="white"/>
<path d="M577.286 23.96L563.805 101H544.438L558.026 23.96H577.286Z" fill="white"/>
<path d="M549.629 23.96L519.455 62.801L536.04 101H514.105L503.619 76.39L485.964 101H464.029L492.384 62.801L477.618 23.96H499.553L508.434 48.998L527.694 23.96H549.629Z" fill="white"/>
<path d="M440.315 101L440.957 84.201H423.088L417.845 101H397.408L424.907 23.96H460.217L460.645 101H440.315ZM435.928 42.685L427.475 69.863H441.492L442.669 42.685H435.928Z" fill="white"/>
<path d="M376.624 23.96C384.756 23.96 390.534 25.7433 393.958 29.31C396.526 32.0206 397.81 35.4446 397.81 39.582C397.81 41.0086 397.667 42.5066 397.382 44.076L395.884 52.422C395.028 57.0586 393.53 60.8036 391.39 63.657C389.321 66.5103 387.003 68.5433 384.435 69.756L394.172 101H372.558L363.57 72.217H356.936L352.549 101H332.005L345.594 23.96H376.624ZM369.883 40.652H361.858L359.076 59.27H366.566C370.347 59.27 373.057 58.3783 374.698 56.595C376.339 54.7403 377.159 52.315 377.159 49.319C377.159 43.541 374.734 40.652 369.883 40.652Z" fill="white"/>
<path d="M302.938 77.567H290.204L286.031 101H266.771L280.361 23.96H312.995C321.056 23.96 326.799 25.8146 330.223 29.524C332.719 32.3773 333.967 36.0153 333.967 40.438C333.967 41.936 333.825 43.5053 333.539 45.146L331.4 57.237C330.33 63.1576 327.191 68.044 321.983 71.896C316.776 75.6766 310.427 77.567 302.938 77.567ZM306.254 40.652H296.624L293.094 60.875H302.616C308.466 60.875 311.854 58.2713 312.781 53.064L313.53 48.677C313.673 48.035 313.745 47.179 313.745 46.109C313.745 45.039 313.209 43.862 312.139 42.578C311.069 41.294 309.108 40.652 306.254 40.652Z" fill="white"/>
<path d="M209.252 102.498C199.051 102.498 191.989 100.287 188.066 95.8639C185.355 92.7253 184 88.3383 184 82.7029C184 80.2776 184.25 77.6739 184.749 74.8919L189.136 50.2819C192.346 32.2346 203.938 23.2109 223.911 23.2109C232.186 23.2109 238.463 24.9943 242.743 28.5609C247.023 32.0563 249.163 36.8713 249.163 43.0059C249.163 45.8593 248.735 48.7126 247.879 51.5659C247.094 54.3479 246.31 56.4166 245.525 57.7719L244.348 59.9119H225.409C227.763 57.2013 228.94 53.3493 228.94 48.3559C228.94 45.7166 228.262 43.6479 226.907 42.1499C225.552 40.5806 223.554 39.7959 220.915 39.7959C213.71 39.7959 209.43 43.7906 208.075 51.7799L204.33 73.3939C203.973 75.2486 203.795 77.0676 203.795 78.8509C203.795 83.5589 206.613 85.9129 212.248 85.9129C219.025 85.9129 223.091 82.0966 224.446 74.4639H243.706L243.171 77.5669C240.318 94.1876 229.011 102.498 209.252 102.498Z" fill="white"/>
<path d="M186.155 23.96L172.673 101H153.306L166.895 23.96H186.155Z" fill="white"/>
<path d="M125.166 77.567H112.433L108.26 101H89L102.589 23.96H135.224C143.285 23.96 149.027 25.8146 152.451 29.524C154.948 32.3773 156.196 36.0153 156.196 40.438C156.196 41.936 156.053 43.5053 155.768 45.146L153.628 57.237C152.558 63.1576 149.419 68.044 144.212 71.896C139.005 75.6766 132.656 77.567 125.166 77.567ZM128.483 40.652H118.853L115.322 60.875H124.845C130.694 60.875 134.083 58.2713 135.01 53.064L135.759 48.677C135.902 48.035 135.973 47.179 135.973 46.109C135.973 45.039 135.438 43.862 134.368 42.578C133.298 41.294 131.336 40.652 128.483 40.652Z" fill="white"/>
<path d="M80.714 101H27L40.589 23.96H94.303L91.307 40.652H56.853L54.392 55.097H82.854L79.858 71.789H51.396L49.256 84.308H83.71L80.714 101Z" fill="white"/>
<path d="M663.699 75.2571H649.653L657.257 24H675.211L663.699 75.2571ZM643.211 95.0236C643.211 90.8894 644.197 87.8857 646.168 86.0124C648.139 84.0745 651.273 83.1056 655.567 83.1056C661.482 83.1056 664.439 85.4957 664.439 90.2758C664.439 94.3453 663.418 97.3168 661.376 99.1901C659.405 101.063 656.271 102 651.977 102C646.133 102 643.211 99.6745 643.211 95.0236Z" fill="white"/>
</g>
<defs>
<filter id="filter0_dd_975_1863" x="0.870117" y="0.987793" width="738.242" height="178.686" filterUnits="userSpaceOnUse" color-interpolation-filters="sRGB">
<feFlood flood-opacity="0" result="BackgroundImageFix"/>
<feColorMatrix in="SourceAlpha" type="matrix" values="0 0 0 0 0 0 0 0 0 0 0 0 0 0 0 0 0 0 127 0" result="hardAlpha"/>
<feOffset dx="9" dy="10"/>
<feGaussianBlur stdDeviation="10"/>
<feComposite in2="hardAlpha" operator="out"/>
<feColorMatrix type="matrix" values="0 0 0 0 0.192157 0 0 0 0 0.509804 0 0 0 0 0.964706 0 0 0 0.42 0"/>
<feBlend mode="normal" in2="BackgroundImageFix" result="effect1_dropShadow_975_1863"/>
<feColorMatrix in="SourceAlpha" type="matrix" values="0 0 0 0 0 0 0 0 0 0 0 0 0 0 0 0 0 0 127 0" result="hardAlpha"/>
<feOffset dx="-1" dy="-2"/>
<feGaussianBlur stdDeviation="1"/>
<feComposite in2="hardAlpha" operator="out"/>
<feColorMatrix type="matrix" values="0 0 0 0 0.192157 0 0 0 0 0.509804 0 0 0 0 0.964706 0 0 0 0.2 0"/>
<feBlend mode="normal" in2="effect1_dropShadow_975_1863" result="effect2_dropShadow_975_1863"/>
<feBlend mode="normal" in="SourceGraphic" in2="effect2_dropShadow_975_1863" result="shape"/>
</filter>
<linearGradient id="paint0_linear_975_1863" x1="13.3728" y1="79.7441" x2="979.276" y2="79.744" gradientUnits="userSpaceOnUse">
<stop stop-color="#3182F6"/>
<stop offset="1" stop-color="#A009FF"/>
</linearGradient>
</defs>
</svg>
