<svg width="559" height="102" viewBox="0 0 559 102" fill="none" xmlns="http://www.w3.org/2000/svg">
<path d="M115.054 1.28736L14.9451 1.28143L1.00105 82.5685L12.8272 100.584L74.0753 100.588L112.091 100.59L112.093 100.59L144.616 100.592L186.012 100.595L533.202 100.595C541.404 98.8631 549.947 96.7217 552.473 79.4578L557.81 35.462L539.626 16.7094C536.548 11.5701 527.019 1.29156 513.529 1.29156C496.667 1.29156 487.433 5.46779 485.425 9.88411C486.71 4.74512 487.567 2.0145 487.834 1.29156L459.329 1.29156L457.723 9.88411L457.723 1.29156L433.232 1.29156L423.597 13.4975L418.378 1.29156L388.668 1.29156L391.077 12.293L386.66 1.29156L347.716 1.29156L341.694 16.3079C340.624 11.3024 336.073 1.29156 326.438 1.29156C316.802 1.29156 294.051 1.29056 283.881 1.29006L282.676 11.0886C281.739 7.82339 277.216 1.29276 266.617 1.29156C256.018 1.29036 235.97 1.29106 227.271 1.29156L222.052 26.3449L203.182 9.08114C203.182 9.08114 192.983 1.29492 183.911 1.29156C167.015 1.29056 161.824 7.00225 158.983 10.5172L160.673 1.29006L127.726 1.28811L125.614 10.5153C125.952 3.83649 118.715 1.5805 115.054 1.28736Z" fill="#3182F6" stroke="#3182F6"/>
<path d="M494.117 55.536C494.117 59.4882 496.953 61.4643 502.623 61.4643C508.351 61.4643 511.215 59.6887 511.215 56.1374C511.215 54.2473 510.241 52.7007 508.294 51.4979C506.346 50.295 503.969 49.2927 501.163 48.4908C498.413 47.6889 495.635 46.7724 492.829 45.7414C490.079 44.6531 487.731 42.9921 485.783 40.7582C483.836 38.4671 482.862 35.6318 482.862 32.2524C482.862 17.8755 492.113 10.6871 510.614 10.6871C517.372 10.6871 522.47 11.9758 525.907 14.5534C529.401 17.0736 531.148 20.5962 531.148 25.1212C531.148 26.7823 530.919 28.3861 530.461 29.9326C530.06 31.4218 529.63 32.4815 529.172 33.1115L528.484 34.1426H513.277C514.537 32.8252 515.167 31.1641 515.167 29.1593C515.167 25.4362 512.733 23.5747 507.864 23.5747C501.735 23.5747 498.671 25.5222 498.671 29.4171C498.671 31.3646 499.645 32.9111 501.592 34.0566C503.54 35.2022 505.888 36.1187 508.637 36.806C511.444 37.4361 514.251 38.238 517.057 39.2117C519.864 40.1854 522.241 41.8179 524.189 44.109C526.136 46.3428 527.11 49.264 527.11 52.8726C527.11 60.1469 524.933 65.5597 520.58 69.111C516.227 72.605 509.525 74.352 500.475 74.352C491.425 74.352 485.239 72.7482 481.917 69.5406C479.454 67.1349 478.223 63.8127 478.223 59.5741C478.223 57.9703 478.395 56.2234 478.738 54.3332L478.996 52.9585H494.461L494.289 53.9895C494.175 54.5623 494.117 55.0778 494.117 55.536Z" fill="white"/>
<path d="M476.395 11.2885L465.57 73.1491H450.019L460.93 11.2885H476.395Z" fill="white"/>
<path d="M454.188 11.2885L429.959 42.4766L443.277 73.1491H425.663L417.244 53.3881L403.067 73.1491H385.454L408.222 42.4766L396.366 11.2885H413.979L421.11 31.3932L436.575 11.2885H454.188Z" fill="white"/>
<path d="M366.412 73.1491L366.927 59.6601H352.579L348.369 73.1491H331.959L354.04 11.2885H382.393L382.736 73.1491H366.412ZM362.889 26.3241L356.102 48.1471H367.357L368.302 26.3241H362.889Z" fill="white"/>
<path d="M315.27 11.2885C321.8 11.2885 326.439 12.7205 329.189 15.5844C331.251 17.761 332.282 20.5103 332.282 23.8325C332.282 24.978 332.167 26.1809 331.938 27.441L330.735 34.1426C330.048 37.8657 328.845 40.8728 327.127 43.1639C325.466 45.455 323.604 47.0875 321.542 48.0612L329.36 73.1491H312.005L304.788 50.0373H299.461L295.939 73.1491H279.442L290.354 11.2885H315.27ZM309.857 24.6916H303.413L301.18 39.6413H307.194C310.229 39.6413 312.406 38.9253 313.723 37.4934C315.041 36.0041 315.7 34.0567 315.7 31.651C315.7 27.0114 313.752 24.6916 309.857 24.6916Z" fill="white"/>
<path d="M253.693 54.3332H243.469L240.118 73.1491H224.653L235.565 11.2885H261.77C268.242 11.2885 272.853 12.7777 275.602 15.7562C277.607 18.0474 278.61 20.9686 278.61 24.5198C278.61 25.7227 278.495 26.9828 278.266 28.3002L276.548 38.0089C275.688 42.763 273.168 46.6865 268.987 49.7796C264.805 52.8153 259.708 54.3332 253.693 54.3332ZM256.357 24.6916H248.624L245.789 40.9301H253.436C258.133 40.9301 260.853 38.8394 261.598 34.6581L262.199 31.1355C262.314 30.62 262.371 29.9326 262.371 29.0734C262.371 28.2143 261.942 27.2692 261.082 26.2382C260.223 25.2072 258.648 24.6916 256.357 24.6916Z" fill="white"/>
<path d="M170.121 74.352C161.93 74.352 156.26 72.5763 153.11 69.0251C150.933 66.5048 149.845 62.9822 149.845 58.4572C149.845 56.5098 150.045 54.4191 150.446 52.1852L153.969 32.4242C156.546 17.9328 165.854 10.6871 181.892 10.6871C188.536 10.6871 193.577 12.119 197.013 14.9829C200.45 17.7896 202.168 21.6559 202.168 26.5818C202.168 28.8729 201.825 31.1641 201.137 33.4552C200.507 35.6891 199.877 37.3501 199.247 38.4384L198.302 40.1568H183.095C184.985 37.9802 185.93 34.8872 185.93 30.8777C185.93 28.7584 185.386 27.0973 184.298 25.8945C183.209 24.6344 181.606 24.0043 179.486 24.0043C173.701 24.0043 170.264 27.2119 169.176 33.6271L166.169 50.9824C165.883 52.4716 165.739 53.9322 165.739 55.3642C165.739 59.1446 168.002 61.0347 172.527 61.0347C177.968 61.0347 181.233 57.9703 182.322 51.8416H197.787L197.357 54.3332C195.066 67.679 185.987 74.352 170.121 74.352Z" fill="white"/>
<path d="M147.073 11.2885L136.247 73.1491H120.696L131.608 11.2885H147.073Z" fill="white"/>
<path d="M94.9474 54.3332H84.7232L81.3724 73.1491H65.9072L76.8188 11.2885H103.024C109.496 11.2885 114.107 12.7777 116.856 15.7562C118.861 18.0474 119.863 20.9686 119.863 24.5198C119.863 25.7227 119.749 26.9828 119.52 28.3002L117.801 38.0089C116.942 42.763 114.422 46.6865 110.241 49.7796C106.059 52.8153 100.962 54.3332 94.9474 54.3332ZM97.6108 24.6916H89.8782L87.0429 40.9301H94.6896C99.3864 40.9301 102.107 38.8394 102.852 34.6581L103.453 31.1355C103.568 30.62 103.625 29.9326 103.625 29.0734C103.625 28.2143 103.195 27.2692 102.336 26.2382C101.477 25.2072 99.9019 24.6916 97.6108 24.6916Z" fill="white"/>
<path d="M56.0105 73.1491H12.8799L23.7914 11.2885H66.922L64.5163 24.6916H36.8509L34.8748 36.2905H57.7288L55.3231 49.6936H32.4691L30.7507 59.746H58.4162L56.0105 73.1491Z" fill="white"/>
</svg>
