<svg width="642" height="145" viewBox="0 0 642 145" fill="none" xmlns="http://www.w3.org/2000/svg">
<path fill-rule="evenodd" clip-rule="evenodd" d="M238.087 22.0557C237.274 20.612 226.576 2.43436 203.482 2.43887C184.883 2.43774 179.168 8.82072 176.041 12.7488L177.902 2.43718L141.634 2.435L139.308 12.7466C139.681 5.28289 131.714 2.76176 127.684 2.43416L17.4843 2.42752L2.13477 93.2681L15.153 113.401L199.537 113.411L160.226 113.41L199.687 113.412L245.467 141.227L245.467 113.413L587.981 113.413C588.048 113.399 588.116 113.384 588.183 113.37H605.711C614.724 111.437 624.219 106.015 626.871 89.7602L639.246 25.2547L621.567 2.40527L593.282 2.4071L590.631 13.3556C587.956 8.82233 581.959 4.62437 572.249 3.05666C570.363 2.66019 568.386 2.43893 566.325 2.43893C566.119 2.43893 565.914 2.4395 565.71 2.44065C565.044 2.41846 564.365 2.40713 563.672 2.40713C550.241 2.40713 541.206 4.8505 536.401 8.07096C537.253 4.85239 537.823 3.03499 538.04 2.43892L535.375 2.43892C535.379 2.42796 535.383 2.41737 535.387 2.40713L504.008 2.40713L504.002 2.43892L502.24 2.43892V2.40713L475.281 2.40713L466.387 13.8451L461.582 2.43891L458.942 2.43891L458.929 2.40713L426.224 2.40713L426.231 2.4389L424.027 2.4389L424.014 2.40713L381.145 2.40713L376.015 15.3941C373.802 9.65506 368.894 2.43889 360.375 2.43889C359.849 2.43889 359.286 2.43889 358.692 2.43888C358.374 2.41788 358.05 2.40713 357.721 2.40713C347.115 2.40713 322.071 2.40601 310.874 2.40545L310.041 9.29044C307.463 5.93039 302.593 2.43981 294.524 2.43888C294.09 2.43883 293.642 2.43878 293.181 2.43874C292.754 2.41792 292.317 2.40718 291.87 2.40713C280.203 2.40579 251.25 2.40489 241.674 2.40545L238.087 22.0557Z" fill="url(#paint0_linear_950_1199)"/>
<path d="M203.482 2.43887L203.482 4.43887L203.482 4.43887L203.482 2.43887ZM238.087 22.0557L236.345 23.0373L239.061 27.8592L240.055 22.4148L238.087 22.0557ZM176.041 12.7488L174.073 12.3937L177.606 13.9944L176.041 12.7488ZM177.902 2.43718L179.87 2.79231L180.295 0.437329L177.902 0.437185L177.902 2.43718ZM141.634 2.435L141.634 0.435L140.034 0.434904L139.683 1.99501L141.634 2.435ZM139.308 12.7466L137.311 12.6469L141.259 13.1866L139.308 12.7466ZM127.684 2.43416L127.846 0.440736L127.765 0.434165L127.684 0.43416L127.684 2.43416ZM17.4843 2.42752L17.4845 0.427521L15.7939 0.42742L15.5123 2.0943L17.4843 2.42752ZM2.13477 93.2681L0.16272 92.9349L0.0332121 93.7014L0.455277 94.3541L2.13477 93.2681ZM15.153 113.401L13.4735 114.487L14.0645 115.401L15.1529 115.401L15.153 113.401ZM199.537 113.411L199.537 115.411L199.537 111.411L199.537 113.411ZM160.226 113.41L160.226 111.41L160.226 115.41L160.226 113.41ZM199.687 113.412L200.726 111.703L200.247 111.413L199.687 111.412L199.687 113.412ZM245.467 141.227L244.429 142.936L247.467 144.782L247.467 141.227L245.467 141.227ZM245.467 113.413L245.467 111.413L243.467 111.413L243.467 113.413L245.467 113.413ZM587.981 113.413L587.981 115.413L588.193 115.413L588.4 115.369L587.981 113.413ZM588.183 113.37V111.37H587.97L587.763 111.414L588.183 113.37ZM605.711 113.37V115.37H605.923L606.13 115.325L605.711 113.37ZM626.871 89.7602L624.907 89.3834L624.901 89.4107L624.897 89.4382L626.871 89.7602ZM639.246 25.2547L641.21 25.6315L641.38 24.7449L640.827 24.0309L639.246 25.2547ZM621.567 2.40527L623.149 1.18144L622.549 0.40521L621.567 0.405273L621.567 2.40527ZM593.282 2.4071L593.282 0.407102L591.709 0.407203L591.339 1.93631L593.282 2.4071ZM590.631 13.3556L588.908 14.3718L591.414 18.6189L592.575 13.8264L590.631 13.3556ZM572.249 3.05666L571.837 5.01386L571.884 5.02357L571.93 5.03109L572.249 3.05666ZM566.325 2.43893L566.325 0.438927L566.325 2.43893ZM565.71 2.44065L565.644 4.43954L565.683 4.44083L565.721 4.44062L565.71 2.44065ZM563.672 2.40713V4.40713V2.40713ZM536.401 8.07096L534.467 7.55909L533.111 12.6832L537.514 9.7324L536.401 8.07096ZM538.04 2.43892L539.919 3.12423L540.899 0.438922L538.04 0.438922L538.04 2.43892ZM535.375 2.43892L533.494 1.75812L532.524 4.43892L535.375 4.43892L535.375 2.43892ZM535.387 2.40713L537.266 3.09069L538.242 0.407128L535.387 0.407128L535.387 2.40713ZM504.008 2.40713L504.008 0.407128L502.343 0.407128L502.041 2.04459L504.008 2.40713ZM504.002 2.43892L504.002 4.43892L505.667 4.43892L505.969 2.80146L504.002 2.43892ZM502.24 2.43892H500.24V4.43892L502.24 4.43892L502.24 2.43892ZM502.24 2.40713H504.24V0.407128L502.24 0.407128L502.24 2.40713ZM475.281 2.40713L475.281 0.407128L474.303 0.407128L473.702 1.17942L475.281 2.40713ZM466.387 13.8451L464.544 14.6215L465.869 17.7687L467.966 15.0728L466.387 13.8451ZM461.582 2.43891L463.426 1.66256L462.91 0.438909L461.582 0.438909L461.582 2.43891ZM458.942 2.43891L457.099 3.2158L457.615 4.43891L458.942 4.43891L458.942 2.43891ZM458.929 2.40713L460.772 1.63023L460.256 0.407128L458.929 0.407128L458.929 2.40713ZM426.224 2.40713L426.224 0.407128L423.746 0.407128L424.269 2.82957L426.224 2.40713ZM426.231 2.4389L426.231 4.4389L428.709 4.4389L428.186 2.01646L426.231 2.4389ZM424.027 2.4389L422.167 3.17478L422.668 4.4389L424.027 4.4389L424.027 2.4389ZM424.014 2.40713L425.874 1.67125L425.374 0.407128L424.014 0.407128L424.014 2.40713ZM381.145 2.40713L381.145 0.407128L379.785 0.407128L379.285 1.6723L381.145 2.40713ZM376.015 15.3941L374.148 16.1136L375.992 20.8948L377.875 16.1289L376.015 15.3941ZM360.375 2.43889L360.375 4.43889L360.375 2.43889ZM358.692 2.43888L358.56 4.43454L358.626 4.43888L358.692 4.43888L358.692 2.43888ZM357.721 2.40713L357.721 0.407128L357.721 2.40713ZM310.874 2.40545L310.875 0.405452L309.102 0.405363L308.889 2.16504L310.874 2.40545ZM310.041 9.29044L308.454 10.5078L311.437 14.3963L312.026 9.53085L310.041 9.29044ZM294.524 2.43888L294.524 4.43888L294.524 2.43888ZM293.181 2.43874L293.084 4.43637L293.132 4.43873L293.181 4.43874L293.181 2.43874ZM291.87 2.40713L291.87 4.40713L291.87 2.40713ZM241.674 2.40545L241.674 0.405452L240.006 0.405549L239.706 2.04634L241.674 2.40545ZM203.482 4.43887C225.415 4.43459 235.599 21.7133 236.345 23.0373L239.83 21.0741C238.949 19.5108 227.737 0.434137 203.482 0.438865L203.482 4.43887ZM177.606 13.9944C179.095 12.1237 181.091 9.80404 184.859 7.90675C188.656 5.99515 194.408 4.43832 203.482 4.43887L203.482 0.438865C193.957 0.438291 187.552 2.07238 183.06 4.33402C178.54 6.60996 176.114 9.44581 174.477 11.5032L177.606 13.9944ZM175.934 2.08206L174.073 12.3937L178.01 13.1039L179.87 2.79231L175.934 2.08206ZM141.633 4.435L177.902 4.43718L177.902 0.437185L141.634 0.435L141.633 4.435ZM141.259 13.1866L143.585 2.87499L139.683 1.99501L137.357 12.3066L141.259 13.1866ZM127.522 4.42758C129.304 4.57247 131.956 5.21462 134.051 6.58732C136.068 7.90894 137.453 9.79873 137.311 12.6469L141.306 12.8463C141.536 8.23076 139.123 5.12813 136.243 3.24136C133.441 1.40566 130.094 0.623445 127.846 0.440736L127.522 4.42758ZM17.4842 4.42752L127.684 4.43416L127.684 0.43416L17.4845 0.427521L17.4842 4.42752ZM4.10681 93.6014L19.4564 2.76074L15.5123 2.0943L0.16272 92.9349L4.10681 93.6014ZM16.8325 112.315L3.81425 92.1822L0.455277 94.3541L13.4735 114.487L16.8325 112.315ZM199.537 111.411L15.1531 111.401L15.1529 115.401L199.537 115.411L199.537 111.411ZM160.226 115.41L199.537 115.411L199.537 111.411L160.226 111.41L160.226 115.41ZM199.687 111.412L160.226 111.41L160.226 115.41L199.687 115.412L199.687 111.412ZM246.506 139.517L200.726 111.703L198.649 115.122L244.429 142.936L246.506 139.517ZM243.467 113.413L243.467 141.227L247.467 141.227L247.467 113.413L243.467 113.413ZM587.981 111.413L245.467 111.413L245.467 115.413L587.981 115.413L587.981 111.413ZM587.763 111.414C587.696 111.429 587.629 111.443 587.562 111.457L588.4 115.369C588.468 115.354 588.536 115.339 588.603 115.325L587.763 111.414ZM588.183 115.37H605.711V111.37H588.183V115.37ZM606.13 115.325C610.863 114.31 615.87 112.348 620.052 108.388C624.252 104.41 627.461 98.5673 628.845 90.0822L624.897 89.4382C623.629 97.2081 620.764 102.204 617.301 105.483C613.819 108.781 609.571 110.496 605.292 111.414L606.13 115.325ZM628.835 90.137L641.21 25.6315L637.281 24.8779L624.907 89.3834L628.835 90.137ZM640.827 24.0309L623.149 1.18144L619.986 3.62911L637.664 26.4785L640.827 24.0309ZM621.567 0.405273L593.282 0.407102L593.283 4.4071L621.568 4.40527L621.567 0.405273ZM591.339 1.93631L588.687 12.8848L592.575 13.8264L595.226 2.87789L591.339 1.93631ZM592.353 12.3393C589.289 7.14605 582.672 2.71347 572.568 1.08222L571.93 5.03109C581.247 6.53526 586.623 10.4986 588.908 14.3718L592.353 12.3393ZM566.325 4.43893C568.242 4.43893 570.081 4.64463 571.837 5.01386L572.66 1.09945C570.645 0.675742 568.53 0.438927 566.325 0.438927L566.325 4.43893ZM565.721 4.44062C565.922 4.43949 566.123 4.43893 566.325 4.43893L566.325 0.438927C566.116 0.438927 565.907 0.439513 565.699 0.440678L565.721 4.44062ZM565.777 0.441755C565.088 0.418815 564.386 0.407128 563.672 0.407128V4.40713C564.343 4.40713 565 4.4181 565.644 4.43954L565.777 0.441755ZM563.672 0.407128C550.081 0.407128 540.575 2.86584 535.287 6.40952L537.514 9.7324C541.837 6.83515 550.401 4.40713 563.672 4.40713L563.672 0.407128ZM536.161 1.75362C535.911 2.43954 535.322 4.33009 534.467 7.55909L538.334 8.58282C539.183 5.3747 539.735 3.63045 539.919 3.12423L536.161 1.75362ZM535.375 4.43892L538.04 4.43892L538.04 0.438922L535.375 0.438922L535.375 4.43892ZM537.256 3.11972C537.259 3.10964 537.263 3.09996 537.266 3.09069L533.507 1.72357C533.503 1.73477 533.499 1.74629 533.494 1.75812L537.256 3.11972ZM535.387 0.407128L504.008 0.407128L504.008 4.40713L535.387 4.40713L535.387 0.407128ZM502.041 2.04459L502.035 2.07637L505.969 2.80146L505.975 2.76967L502.041 2.04459ZM502.24 4.43892L504.002 4.43892L504.002 0.438916L502.24 0.438916L502.24 4.43892ZM504.24 2.43892V2.40713H500.24V2.43892H504.24ZM502.24 0.407128L475.281 0.407128L475.281 4.40713L502.24 4.40713L502.24 0.407128ZM473.702 1.17942L464.808 12.6174L467.966 15.0728L476.86 3.63484L473.702 1.17942ZM459.739 3.21526L464.544 14.6215L468.23 13.0688L463.426 1.66256L459.739 3.21526ZM458.942 4.43891L461.582 4.43891L461.582 0.438909L458.942 0.438909L458.942 4.43891ZM460.785 1.66202L460.772 1.63023L457.086 3.18402L457.099 3.2158L460.785 1.66202ZM458.929 0.407128L426.224 0.407128L426.224 4.40713L458.929 4.40713L458.929 0.407128ZM424.269 2.82957L424.276 2.86134L428.186 2.01646L428.179 1.98469L424.269 2.82957ZM424.027 4.4389L426.231 4.4389L426.231 0.438903L424.027 0.438903L424.027 4.4389ZM425.887 1.70302L425.874 1.67125L422.155 3.14301L422.167 3.17478L425.887 1.70302ZM424.014 0.407128L381.145 0.407128L381.145 4.40713L424.014 4.40713L424.014 0.407128ZM379.285 1.6723L374.154 14.6592L377.875 16.1289L383.005 3.14196L379.285 1.6723ZM360.375 4.43889C367.576 4.43889 372.005 10.5544 374.148 16.1136L377.881 14.6746C375.599 8.75567 370.211 0.438893 360.375 0.438892L360.375 4.43889ZM358.692 4.43888C359.286 4.43889 359.849 4.43889 360.375 4.43889L360.375 0.438892C359.849 0.438892 359.286 0.438889 358.692 0.438883L358.692 4.43888ZM358.824 0.443229C358.461 0.419307 358.094 0.407128 357.721 0.407128V4.40713C358.007 4.40713 358.286 4.41645 358.56 4.43454L358.824 0.443229ZM357.721 0.407128C347.115 0.407128 322.071 0.40601 310.875 0.405452L310.874 4.40545C322.071 4.40601 347.115 4.40713 357.721 4.40713L357.721 0.407128ZM308.889 2.16504L308.055 9.05003L312.026 9.53085L312.86 2.64586L308.889 2.16504ZM294.524 4.43888C301.938 4.43973 306.234 7.61432 308.454 10.5078L311.628 8.07307C308.692 4.24646 303.248 0.439885 294.524 0.438881L294.524 4.43888ZM293.181 4.43874C293.642 4.43878 294.09 4.43883 294.524 4.43888L294.524 0.438881C294.091 0.438831 293.643 0.438784 293.181 0.43874L293.181 4.43874ZM293.278 0.441111C292.818 0.418693 292.349 0.407183 291.871 0.407128L291.87 4.40713C292.285 4.40718 292.689 4.41715 293.084 4.43637L293.278 0.441111ZM291.871 0.407128C280.203 0.405787 251.25 0.404893 241.674 0.405452L241.674 4.40545C251.25 4.40489 280.203 4.40579 291.87 4.40713L291.871 0.407128ZM239.706 2.04634L236.12 21.6966L240.055 22.4148L243.641 2.76456L239.706 2.04634ZM606.076 115.337L606.13 115.325L605.292 111.414L605.238 111.426L606.076 115.337Z" fill="white"/>
<path d="M191.13 85.2255C181.977 85.2255 175.64 83.2411 172.119 79.2725C169.687 76.4561 168.471 72.5194 168.471 67.4626C168.471 65.2863 168.695 62.9499 169.143 60.4535L173.079 38.37C175.96 22.1754 186.362 14.0781 204.284 14.0781C211.71 14.0781 217.342 15.6784 221.183 18.8789C225.024 22.0154 226.944 26.3361 226.944 31.841C226.944 34.4014 226.56 36.9618 225.792 39.5222C225.088 42.0186 224.384 43.8749 223.679 45.0911L222.623 47.0114H205.629C207.741 44.579 208.797 41.1224 208.797 36.6417C208.797 34.2733 208.189 32.417 206.973 31.0728C205.757 29.6646 203.964 28.9605 201.596 28.9605C195.131 28.9605 191.29 32.5451 190.074 39.7142L186.714 59.1093C186.394 60.7736 186.234 62.4058 186.234 64.0061C186.234 68.2307 188.762 70.3431 193.819 70.3431C199.9 70.3431 203.548 66.9185 204.764 60.0694H222.047L221.567 62.8539C219.007 77.7683 208.861 85.2255 191.13 85.2255Z" fill="white"/>
<path d="M165.373 13.853L153.275 82.984H135.896L148.09 13.853H165.373Z" fill="white"/>
<path d="M107.121 61.9567H95.6953L91.9507 82.984H74.668L86.8619 13.853H116.147C123.38 13.853 128.533 15.5173 131.605 18.8458C133.845 21.4062 134.966 24.6707 134.966 28.6394C134.966 29.9836 134.838 31.3918 134.582 32.8641L132.661 43.7138C131.701 49.0266 128.885 53.4113 124.212 56.8679C119.539 60.2604 113.842 61.9567 107.121 61.9567ZM110.098 28.8314H101.456L98.2877 46.9783H106.833C112.082 46.9783 115.122 44.6419 115.955 39.9692L116.627 36.0326C116.755 35.4565 116.819 34.6883 116.819 33.7282C116.819 32.768 116.339 31.7119 115.378 30.5597C114.418 29.4075 112.658 28.8314 110.098 28.8314Z" fill="white"/>
<path d="M63.6079 82.984H15.4082L27.6021 13.853H75.8018L73.1134 28.8314H42.1965L39.9881 41.7935H65.5282L62.8398 56.7719H37.2997L35.3794 68.0056H66.2963L63.6079 82.984Z" fill="white"/>
<path d="M604.406 59.7253H592.59L598.986 13.1406H614.09L604.406 59.7253ZM587.17 77.69C587.17 73.9326 587.999 71.2027 589.658 69.5002C591.316 67.739 593.952 66.8583 597.565 66.8583C602.54 66.8583 605.028 69.0305 605.028 73.3749C605.028 77.0735 604.169 79.7741 602.451 81.4766C600.793 83.1791 598.157 84.0304 594.544 84.0304C589.628 84.0304 587.17 81.9169 587.17 77.69Z" fill="white"/>
<path d="M542.859 63.4501C542.859 67.8668 546.027 70.0751 552.364 70.0751C558.765 70.0751 561.966 68.0908 561.966 64.1222C561.966 62.0098 560.877 60.2816 558.701 58.9373C556.525 57.5931 553.868 56.4729 550.732 55.5768C547.659 54.6807 544.555 53.6565 541.418 52.5043C538.346 51.2881 535.721 49.4318 533.545 46.9354C531.369 44.375 530.281 41.2065 530.281 37.4299C530.281 21.3634 540.618 13.3301 561.293 13.3301C568.847 13.3301 574.544 14.7703 578.384 17.6508C582.289 20.4672 584.241 24.4038 584.241 29.4606C584.241 31.3169 583.985 33.1092 583.473 34.8375C583.025 36.5018 582.545 37.686 582.033 38.3901L581.265 39.5423H564.27C565.678 38.07 566.382 36.2137 566.382 33.9734C566.382 29.8127 563.662 27.7324 558.221 27.7324C551.372 27.7324 547.947 29.9087 547.947 34.2614C547.947 36.4378 549.036 38.166 551.212 39.4462C553.388 40.7264 556.013 41.7506 559.085 42.5187C562.222 43.2228 565.358 44.119 568.495 45.2072C571.631 46.2953 574.288 48.1196 576.464 50.68C578.64 53.1764 579.728 56.4409 579.728 60.4736C579.728 68.6029 577.296 74.6518 572.431 78.6205C567.566 82.5251 560.077 84.4774 549.964 84.4774C539.85 84.4774 532.937 82.6851 529.224 79.1005C526.472 76.4121 525.096 72.6995 525.096 67.9628C525.096 66.1705 525.288 64.2182 525.672 62.1058L525.96 60.5696H543.243L543.051 61.7218C542.923 62.3619 542.859 62.938 542.859 63.4501Z" fill="white"/>
<path d="M523.053 14.0024L510.955 83.1334H493.576L505.77 14.0024H523.053Z" fill="white"/>
<path d="M498.238 14.0024L471.162 48.856L486.044 83.1334H466.361L456.951 61.0499L441.109 83.1334H421.426L446.87 48.856L433.62 14.0024H453.303L461.272 36.47L478.555 14.0024H498.238Z" fill="white"/>
<path d="M400.145 83.1334L400.721 68.059H384.686L379.981 83.1334H361.643L386.318 14.0024H418.004L418.388 83.1334H400.145ZM396.208 30.8051L388.623 55.193H401.201L402.257 30.8051H396.208Z" fill="white"/>
<path d="M342.991 14.0024C350.289 14.0024 355.473 15.6027 358.546 18.8032C360.85 21.2356 362.003 24.3081 362.003 28.0207C362.003 29.3009 361.875 30.6451 361.618 32.0533L360.274 39.5425C359.506 43.7032 358.162 47.0637 356.242 49.6241C354.385 52.1845 352.305 54.0088 350.001 55.097L358.738 83.1334H339.343L331.278 57.3053H325.325L321.388 83.1334H302.953L315.147 14.0024H342.991ZM336.943 28.9808H329.741L327.245 45.6875H333.966C337.359 45.6875 339.791 44.8874 341.263 43.2871C342.735 41.6228 343.472 39.4465 343.472 36.7581C343.472 31.5732 341.295 28.9808 336.943 28.9808Z" fill="white"/>
<path d="M274.178 62.1056H262.752L259.007 83.1329H241.725L253.919 14.002H283.203C290.436 14.002 295.589 15.6662 298.662 18.9947C300.902 21.5552 302.022 24.8197 302.022 28.7883C302.022 30.1325 301.894 31.5407 301.638 33.013L299.718 43.8627C298.758 49.1756 295.941 53.5602 291.268 57.0168C286.596 60.4093 280.899 62.1056 274.178 62.1056ZM277.154 28.9803H268.513L265.344 47.1272H273.89C279.139 47.1272 282.179 44.7909 283.011 40.1181L283.683 36.1815C283.811 35.6054 283.875 34.8373 283.875 33.8771C283.875 32.917 283.395 31.8608 282.435 30.7086C281.475 29.5564 279.715 28.9803 277.154 28.9803Z" fill="white"/>
<defs>
<linearGradient id="paint0_linear_950_1199" x1="1.55902" y1="71.8159" x2="888.284" y2="71.8158" gradientUnits="userSpaceOnUse">
<stop stop-color="#3182F6"/>
<stop offset="1" stop-color="#A009FF"/>
</linearGradient>
</defs>
</svg>
