<svg width="85" height="51" viewBox="0 0 85 51" fill="none" xmlns="http://www.w3.org/2000/svg">
<mask id="path-1-outside-1_651_26" maskUnits="userSpaceOnUse" x="-1.20335" y="-0.21358" width="87.1981" height="53.3822" fill="black">
<rect fill="white" x="-1.20335" y="-0.21358" width="87.1981" height="53.3822"/>
<path d="M10.0217 42.5717L4.4279 36.3887L4.90744 12.0567L21.9371 9.57587L35.0369 7.66751C37.0019 7.38125 40.7733 8.01642 41.2614 11.3674L41.5868 6.71332L49.1191 5.61601L51.4127 7.58526C54.0315 4.90038 56.2771 4.2442 59.8795 3.7194C64.4644 3.05147 66.8049 5.34293 68.3496 6.76316L68.4413 2.80118L74.9912 1.84699L79.3775 6.70317L78.5586 26.3353C78.2322 28.6862 77.158 32.7913 70.2806 33.7932L39.4962 38.2778L40.2014 45.4143L30.3264 39.6137L10.0217 42.5717Z"/>
</mask>
<path d="M10.0217 42.5717L4.4279 36.3887L4.90744 12.0567L21.9371 9.57587L35.0369 7.66751C37.0019 7.38125 40.7733 8.01642 41.2614 11.3674L41.5868 6.71332L49.1191 5.61601L51.4127 7.58526C54.0315 4.90038 56.2771 4.2442 59.8795 3.7194C64.4644 3.05147 66.8049 5.34293 68.3496 6.76316L68.4413 2.80118L74.9912 1.84699L79.3775 6.70317L78.5586 26.3353C78.2322 28.6862 77.158 32.7913 70.2806 33.7932L39.4962 38.2778L40.2014 45.4143L30.3264 39.6137L10.0217 42.5717Z" fill="#3182F6"/>
<path d="M4.4279 36.3887L3.42809 36.369L3.42028 36.7655L3.68635 37.0596L4.4279 36.3887ZM10.0217 42.5717L9.28017 43.2426L9.63804 43.6381L10.1659 43.5612L10.0217 42.5717ZM79.3775 6.70317L80.3766 6.74484L80.3937 6.33631L80.1196 6.03287L79.3775 6.70317ZM74.9912 1.84699L75.7333 1.1767L75.3754 0.780467L74.847 0.857438L74.9912 1.84699ZM68.4413 2.80118L68.2971 1.81162L67.4611 1.93341L67.4415 2.77803L68.4413 2.80118ZM68.3496 6.76316L67.6727 7.4993L69.2982 8.99382L69.3493 6.7863L68.3496 6.76316ZM59.8795 3.7194L60.0237 4.70895L59.8795 3.7194ZM49.1191 5.61601L49.7706 4.8573L49.4253 4.56086L48.975 4.62646L49.1191 5.61601ZM41.5868 6.71332L41.4426 5.72377L40.6454 5.83991L40.5892 6.64359L41.5868 6.71332ZM41.2614 11.3674L40.2719 11.5116L42.259 11.4372L41.2614 11.3674ZM21.9371 9.57587L21.793 8.58632L21.9371 9.57587ZM4.90744 12.0567L4.76328 11.0672L3.92434 11.1894L3.90763 12.037L4.90744 12.0567ZM51.4127 7.58526L50.7612 8.34397L51.4733 8.9553L52.1285 8.28351L51.4127 7.58526ZM35.0369 7.66751L35.181 8.65706L35.0369 7.66751ZM39.4962 38.2778L39.352 37.2883L38.4071 37.4259L38.501 38.3762L39.4962 38.2778ZM70.2806 33.7932L70.1365 32.8036L70.2806 33.7932ZM30.3264 39.6137L30.8328 38.7514L30.5299 38.5735L30.1822 38.6241L30.3264 39.6137ZM40.2014 45.4143L39.6949 46.2765L41.3898 47.2721L41.1965 45.3159L40.2014 45.4143ZM78.5586 26.3353L79.5491 26.4728L79.5557 26.4251L79.5577 26.3769L78.5586 26.3353ZM3.68635 37.0596L9.28017 43.2426L10.7633 41.9008L5.16945 35.7178L3.68635 37.0596ZM80.1196 6.03287L75.7333 1.1767L74.2491 2.51729L78.6354 7.37346L80.1196 6.03287ZM74.847 0.857438L68.2971 1.81162L68.5854 3.79073L75.1353 2.83655L74.847 0.857438ZM67.4415 2.77803L67.3498 6.74002L69.3493 6.7863L69.441 2.82432L67.4415 2.77803ZM69.0264 6.02703C68.2714 5.33286 67.1982 4.30225 65.6972 3.56148C64.1677 2.80667 62.2321 2.36611 59.7353 2.72984L60.0237 4.70895C62.1118 4.40476 63.6389 4.77596 64.8121 5.35496C66.0137 5.948 66.883 6.77323 67.6727 7.4993L69.0264 6.02703ZM48.975 4.62646L41.4426 5.72377L41.7309 7.70288L49.2633 6.60557L48.975 4.62646ZM40.5892 6.64359L40.2639 11.2977L42.259 11.4372L42.5843 6.78305L40.5892 6.64359ZM21.793 8.58632L4.76328 11.0672L5.0516 13.0463L22.0813 10.5654L21.793 8.58632ZM3.90763 12.037L3.42809 36.369L5.42771 36.4084L5.90725 12.0764L3.90763 12.037ZM48.4677 6.37472L50.7612 8.34397L52.0641 6.82655L49.7706 4.8573L48.4677 6.37472ZM52.1285 8.28351C53.3597 7.02135 54.4679 6.2694 55.6661 5.76358C56.8831 5.24986 58.241 4.96865 60.0237 4.70895L59.7353 2.72984C57.9156 2.99495 56.3495 3.30423 54.8883 3.92102C53.4085 4.54571 52.0846 5.46428 50.6968 6.88701L52.1285 8.28351ZM22.0813 10.5654L35.181 8.65706L34.8927 6.67795L21.793 8.58632L22.0813 10.5654ZM35.181 8.65706C36.0086 8.53651 37.251 8.6138 38.3051 9.07093C39.3213 9.51165 40.0897 10.2612 40.2719 11.5116L42.251 11.2233C41.945 9.12264 40.5836 7.87912 39.1008 7.23606C37.6559 6.60942 36.0302 6.51225 34.8927 6.67795L35.181 8.65706ZM39.6403 39.2674L70.4248 34.7827L70.1365 32.8036L39.352 37.2883L39.6403 39.2674ZM10.1659 43.5612L30.4705 40.6033L30.1822 38.6241L9.87757 41.5821L10.1659 43.5612ZM29.8199 40.4759L39.6949 46.2765L40.7079 44.552L30.8328 38.7514L29.8199 40.4759ZM41.1965 45.3159L40.4913 38.1795L38.501 38.3762L39.2062 45.5126L41.1965 45.3159ZM78.3784 6.66149L77.5595 26.2936L79.5577 26.3769L80.3766 6.74484L78.3784 6.66149ZM77.5681 26.1977C77.4138 27.3089 77.0973 28.7066 76.0987 29.9412C75.1179 31.1539 73.3777 32.3314 70.1365 32.8036L70.4248 34.7827C74.0609 34.253 76.2965 32.877 77.6537 31.199C78.9932 29.5428 79.377 27.7125 79.5491 26.4728L77.5681 26.1977Z" fill="#3182F6" mask="url(#path-1-outside-1_651_26)"/>
<path d="M58.014 29.0363C54.9934 29.4763 52.8069 29.1261 51.4543 27.9858C50.5162 27.1733 49.9257 25.9327 49.6826 24.264C49.578 23.5458 49.5396 22.764 49.5674 21.9187L49.8048 14.4421C49.9769 8.95948 53.0201 5.78739 58.9345 4.92578C61.3847 4.56883 63.3205 4.82611 64.7417 5.69763C66.1599 6.54802 67.0013 7.8815 67.2659 9.69807C67.389 10.543 67.3854 11.4064 67.255 12.2882C67.1426 13.1459 66.9995 13.7923 66.8256 14.2275L66.5694 14.9119L60.9613 15.7289C61.5414 14.8247 61.7238 13.6333 61.5084 12.1547C61.3945 11.3731 61.1046 10.7898 60.6386 10.4047C60.1696 9.99844 59.5443 9.85225 58.7628 9.9661C56.6294 10.2769 55.5343 11.6444 55.4776 14.0686L55.301 20.6304C55.2754 21.195 55.3011 21.7414 55.378 22.2694C55.5811 23.6635 56.517 24.239 58.1857 23.9959C60.1924 23.7036 61.2318 22.3981 61.3039 20.0795L67.007 19.2487L66.9825 20.1906C66.8545 25.2353 63.8651 28.1839 58.014 29.0363Z" fill="white"/>
<path d="M48.025 6.74092L47.3561 30.1353L41.6212 30.9707L42.3218 7.57176L48.025 6.74092Z" fill="white"/>
<path d="M33.0179 25.1382L29.2475 25.6875L29.0226 32.8064L23.3194 33.6372L24.02 10.2383L33.6837 8.83045C36.0706 8.48273 37.851 8.78422 39.0249 9.7349C39.8873 10.4721 40.4139 11.4955 40.6047 12.8052C40.6693 13.2487 40.6948 13.7196 40.6811 14.2177L40.569 17.8904C40.5075 19.6897 39.7889 21.2721 38.4131 22.6373C37.0342 23.9815 35.2358 24.8151 33.0179 25.1382ZM32.4077 14.064L29.5561 14.4794L29.3829 20.6201L32.2028 20.2093C33.9349 19.957 34.8259 19.0398 34.8759 17.4578L34.9084 16.1265C34.923 15.9302 34.9072 15.6737 34.861 15.3568C34.8148 15.04 34.6056 14.7145 34.2334 14.3805C33.8612 14.0464 33.2526 13.9409 32.4077 14.064Z" fill="white"/>
<path d="M21.5687 33.8919L5.66319 36.209L6.36376 12.81L22.2693 10.4929L22.1022 15.5649L11.8998 17.0512L11.7942 21.4348L20.2223 20.207L20.0552 25.279L11.6271 26.5068L11.5335 30.3062L21.7359 28.8199L21.5687 33.8919Z" fill="white"/>
<path d="M73.2889 18.3701L69.3948 18.9373L69.319 3.639L74.2964 2.91389L73.2889 18.3701ZM68.4509 24.9787C68.2748 23.7695 68.4201 22.8512 68.8868 22.2237C69.3508 21.5773 70.1781 21.1674 71.3688 20.9939C73.0084 20.7551 73.9301 21.3347 74.1338 22.7327C74.3071 23.9229 74.1507 24.8332 73.6645 25.4636C73.1977 26.0911 72.369 26.4916 71.1783 26.665C69.5582 26.901 68.6491 26.3389 68.4509 24.9787Z" fill="white"/>
</svg>
