<svg width="638" height="139" viewBox="0 0 638 139" fill="none" xmlns="http://www.w3.org/2000/svg">
<path fill-rule="evenodd" clip-rule="evenodd" d="M236.087 19.6504C235.274 18.2067 224.576 0.0290895 201.482 0.0335917C182.883 0.0324713 177.168 6.41545 174.041 10.3435L175.902 0.0319115L139.634 0.0297267L137.308 10.3413C137.681 2.87761 129.714 0.356486 125.684 0.0288864L15.4843 0.022248L0.134766 90.8629L13.153 110.996L197.537 111.006L158.226 111.005L197.687 111.007L243.467 138.821V111.008L585.981 111.008C586.048 110.993 586.116 110.979 586.183 110.964H603.711C612.724 109.031 622.219 103.61 624.871 87.3549L637.246 22.8494L619.567 0L591.282 0.00182829L588.631 10.9503C585.956 6.41706 579.959 2.21909 570.249 0.651382C568.363 0.254913 566.386 0.0336536 564.325 0.0336533C564.119 0.0336532 563.914 0.0342289 563.71 0.0353734C563.044 0.0131853 562.365 0.00185427 561.672 0.00185427C548.241 0.00185427 539.206 2.44523 534.401 5.66568C535.253 2.44712 535.823 0.629721 536.04 0.0336485L533.375 0.0336481C533.379 0.0226893 533.383 0.0120917 533.387 0.00185431L502.008 0.00185433L502.002 0.0336427L500.24 0.0336424V0.00185436L473.281 0.00185435L464.387 11.4398L459.582 0.0336355L456.942 0.0336351L456.929 0.00185428L424.224 0.00185434L424.231 0.0336295L422.027 0.0336292L422.014 0.00185435L379.145 0.00185429L374.015 12.9888C371.802 7.24978 366.894 0.0336198 358.375 0.0336184C357.849 0.0336183 357.286 0.0336154 356.692 0.03361C356.374 0.0126062 356.05 0.00185434 355.721 0.00185434C345.115 0.00185434 320.071 0.000737026 308.874 0.000178398L308.041 6.88517C305.463 3.52512 300.593 0.0345357 292.524 0.0336072C292.09 0.0335573 291.642 0.0335103 291.181 0.0334661C290.754 0.0126475 290.317 0.00190566 289.87 0.00185434C278.203 0.000513632 249.25 -0.000380228 239.674 0.000178399L236.087 19.6504Z" fill="#3182F6"/>
<path d="M189.13 82.8202C179.977 82.8202 173.64 80.8359 170.119 76.8672C167.687 74.0508 166.471 70.1142 166.471 65.0574C166.471 62.881 166.695 60.5446 167.143 58.0482L171.079 35.9647C173.96 19.7701 184.362 11.6729 202.284 11.6729C209.71 11.6729 215.342 13.2731 219.183 16.4736C223.024 19.6101 224.944 23.9308 224.944 29.4357C224.944 31.9961 224.56 34.5565 223.792 37.1169C223.088 39.6133 222.384 41.4696 221.679 42.6858L220.623 44.6061H203.629C205.741 42.1737 206.797 38.7172 206.797 34.2364C206.797 31.8681 206.189 30.0118 204.973 28.6676C203.757 27.2593 201.964 26.5552 199.596 26.5552C193.131 26.5552 189.29 30.1398 188.074 37.3089L184.714 56.704C184.394 58.3683 184.234 60.0005 184.234 61.6008C184.234 65.8255 186.762 67.9378 191.819 67.9378C197.9 67.9378 201.548 64.5133 202.764 57.6642H220.047L219.567 60.4486C217.007 75.363 206.861 82.8202 189.13 82.8202Z" fill="white"/>
<path d="M163.373 11.4478L151.275 80.5788H133.896L146.09 11.4478H163.373Z" fill="white"/>
<path d="M105.121 59.5514H93.6953L89.9507 80.5788H72.668L84.8619 11.4478H114.147C121.38 11.4478 126.533 13.112 129.605 16.4405C131.845 19.001 132.966 22.2655 132.966 26.2341C132.966 27.5783 132.838 28.9865 132.582 30.4588L130.661 41.3085C129.701 46.6213 126.885 51.0061 122.212 54.4626C117.539 57.8551 111.842 59.5514 105.121 59.5514ZM108.098 26.4261H99.4562L96.2877 44.573H104.833C110.082 44.573 113.122 42.2367 113.955 37.5639L114.627 33.6273C114.755 33.0512 114.819 32.2831 114.819 31.3229C114.819 30.3628 114.339 29.3066 113.378 28.1544C112.418 27.0022 110.658 26.4261 108.098 26.4261Z" fill="white"/>
<path d="M61.6079 80.5788H13.4082L25.6021 11.4478H73.8018L71.1134 26.4261H40.1965L37.9881 39.3882H63.5282L60.8398 54.3666H35.2997L33.3794 65.6004H64.2963L61.6079 80.5788Z" fill="white"/>
<path d="M602.406 57.3201H590.59L596.986 10.7354H612.09L602.406 57.3201ZM585.17 75.2847C585.17 71.5274 585.999 68.7975 587.658 67.0949C589.316 65.3337 591.952 64.4531 595.565 64.4531C600.54 64.4531 603.028 66.6253 603.028 70.9697C603.028 74.6682 602.169 77.3688 600.451 79.0713C598.793 80.7739 596.157 81.6251 592.544 81.6251C587.628 81.6251 585.17 79.5116 585.17 75.2847Z" fill="white"/>
<path d="M540.859 61.0448C540.859 65.4615 544.027 67.6698 550.364 67.6698C556.765 67.6698 559.966 65.6855 559.966 61.7169C559.966 59.6046 558.877 57.8763 556.701 56.5321C554.525 55.1879 551.868 54.0677 548.732 53.1715C545.659 52.2754 542.555 51.2512 539.418 50.099C536.346 48.8828 533.721 47.0266 531.545 44.5302C529.369 41.9697 528.281 38.8012 528.281 35.0246C528.281 18.9581 538.618 10.9248 559.293 10.9248C566.847 10.9248 572.544 12.365 576.384 15.2455C580.289 18.0619 582.241 21.9986 582.241 27.0554C582.241 28.9117 581.985 30.704 581.473 32.4322C581.025 34.0965 580.545 35.2807 580.033 35.9848L579.265 37.137H562.27C563.678 35.6647 564.382 33.8085 564.382 31.5681C564.382 27.4074 561.662 25.3271 556.221 25.3271C549.372 25.3271 545.947 27.5034 545.947 31.8561C545.947 34.0325 547.036 35.7608 549.212 37.041C551.388 38.3212 554.013 39.3453 557.085 40.1135C560.222 40.8176 563.358 41.7137 566.495 42.8019C569.631 43.8901 572.288 45.7143 574.464 48.2747C576.64 50.7711 577.728 54.0357 577.728 58.0683C577.728 66.1976 575.296 72.2466 570.431 76.2152C565.566 80.1198 558.077 82.0721 547.964 82.0721C537.85 82.0721 530.937 80.2798 527.224 76.6953C524.472 74.0068 523.096 70.2943 523.096 65.5575C523.096 63.7652 523.288 61.8129 523.672 59.7006L523.96 58.1643H541.243L541.051 59.3165C540.923 59.9566 540.859 60.5327 540.859 61.0448Z" fill="white"/>
<path d="M521.055 11.5972L508.957 80.7282H491.578L503.772 11.5972H521.055Z" fill="white"/>
<path d="M496.238 11.5972L469.162 46.4507L484.044 80.7282H464.361L454.951 58.6447L439.109 80.7282H419.426L444.87 46.4507L431.62 11.5972H451.303L459.272 34.0647L476.555 11.5972H496.238Z" fill="white"/>
<path d="M398.145 80.7282L398.721 65.6538H382.686L377.981 80.7282H359.643L384.318 11.5972H416.004L416.388 80.7282H398.145ZM394.208 28.3998L386.623 52.7877H399.201L400.257 28.3998H394.208Z" fill="white"/>
<path d="M340.991 11.5972C348.289 11.5972 353.473 13.1974 356.546 16.3979C358.85 18.8303 360.003 21.9028 360.003 25.6154C360.003 26.8956 359.875 28.2398 359.618 29.648L358.274 37.1372C357.506 41.2979 356.162 44.6584 354.242 47.2188C352.385 49.7792 350.305 51.6035 348.001 52.6917L356.738 80.7282H337.343L329.278 54.9001H323.325L319.388 80.7282H300.953L313.147 11.5972H340.991ZM334.943 26.5756H327.741L325.245 43.2822H331.966C335.359 43.2822 337.791 42.4821 339.263 40.8818C340.735 39.2176 341.472 37.0412 341.472 34.3528C341.472 29.168 339.295 26.5756 334.943 26.5756Z" fill="white"/>
<path d="M272.178 59.7003H260.752L257.007 80.7277H239.725L251.919 11.5967H281.203C288.436 11.5967 293.589 13.2609 296.662 16.5895C298.902 19.1499 300.022 22.4144 300.022 26.383C300.022 27.7272 299.894 29.1355 299.638 30.6077L297.718 41.4574C296.758 46.7703 293.941 51.155 289.268 54.6115C284.596 58.0041 278.899 59.7003 272.178 59.7003ZM275.154 26.5751H266.513L263.344 44.7219H271.89C277.139 44.7219 280.179 42.3856 281.011 37.7128L281.683 33.7762C281.811 33.2001 281.875 32.432 281.875 31.4718C281.875 30.5117 281.395 29.4555 280.435 28.3033C279.475 27.1512 277.715 26.5751 275.154 26.5751Z" fill="white"/>
</svg>
