<svg width="2054" height="511" viewBox="0 0 2054 511" fill="none" xmlns="http://www.w3.org/2000/svg">
<path d="M382.075 92.3935L56.1893 109.472L21.4452 392.953L74.0372 450.032L648.702 419.915L751.604 462.682L749.087 414.654L1901.33 354.268C1966.79 350.837 1997.89 331.695 2009 265.44C2009 265.44 2026.11 118.606 2029.87 79.0053L1963.49 9.51479L1848.56 15.5382L1845.19 34.6869C1828.8 28.2487 1804.92 17.8255 1759.82 20.1891C1717.63 22.4003 1683.55 40.2394 1676.43 43.5313L1675.43 24.6114L1468.85 35.4382L1458.05 52.0574L1448.48 36.5056L1156.05 51.831L1148.47 74.1191C1133.23 61.7832 1103.68 54.5758 1086.22 55.4907L953.83 62.429C953.549 66.3355 950.61 84.4885 950.61 84.4885C939.892 74.8346 917.459 64.3352 897.091 65.4026L747.242 73.2559L741.106 123.196C728.45 104.401 690.151 75.0804 630.854 79.3555C603.212 80.8041 587.132 80.1875 547.236 98.3314L549.383 83.6253L431.54 89.8011C431.208 92.7373 429.469 105.963 429.469 105.963C420.435 100.599 406.808 91.0973 382.075 92.3935Z" fill="url(#paint0_linear_997_1908)"/>
<path fill-rule="evenodd" clip-rule="evenodd" d="M594.634 88.7743C582.759 90.9604 569.225 95.1619 549.573 104.096L539.849 108.517L542.513 90.2781L436.617 95.8278C436.438 97.2281 436.243 98.7461 436.055 100.193C435.816 102.033 435.588 103.78 435.42 105.067L435.143 107.18L433.99 115.947L426.388 111.436C425.728 111.044 425.05 110.635 424.353 110.213C415.495 104.865 403.41 97.5682 382.262 98.6765L61.175 115.504L27.3403 391.432L76.2612 444.508L649.664 414.457L745.271 454.178L742.933 409.569L1901.3 348.862C1933.73 347.162 1956.37 341.593 1972.26 329.227C1987.97 317.014 1998.09 297.363 2003.54 265.039L2004.26 258.801C2004.74 254.71 2005.42 248.821 2006.25 241.631C2007.91 227.249 2010.17 207.662 2012.54 186.838C2017.09 146.925 2022.07 102.551 2024.12 81.5357L1961.43 15.9159L1853.77 21.5581L1849.96 43.1586L1843.33 40.5526C1842.57 40.2544 1841.79 39.948 1841 39.6351C1824.97 33.291 1802.16 24.2628 1760.37 26.453C1722.63 28.431 1691.54 43.3144 1681.24 48.2492C1680.38 48.662 1679.66 49.0052 1679.1 49.2653L1671.28 52.8769L1670.14 31.1815L1472.29 41.5508L1458.08 63.4053L1445.49 42.9549L1160.39 57.8967L1151.38 84.3553L1144.89 79.0997C1138.13 73.6293 1127.77 69.0193 1116.68 65.8984C1105.62 62.7877 1094.52 61.3487 1086.59 61.764L959.061 68.4477C958.725 70.872 958.302 73.6906 957.909 76.2597C957.521 78.7866 957.143 81.1888 956.862 82.9582C956.722 83.8433 956.605 84.5709 956.524 85.0777L956.404 85.819L956.398 85.8589L956.396 85.8692L956.396 85.8726C956.396 85.8728 956.396 85.8729 950.642 84.9409L956.396 85.8726L954.686 96.4265L946.741 89.2728C942.005 85.0079 934.358 80.3066 925.38 76.8107C916.417 73.3203 906.555 71.1995 897.414 71.6785L752.409 79.2779L744.964 139.846L736.248 126.906C724.733 109.811 688.411 81.5051 631.221 85.6279L631.164 85.632L631.107 85.635C628.871 85.7522 626.727 85.8556 624.655 85.9557C613.694 86.4847 604.717 86.918 594.634 88.7743ZM946.392 74.4532C947.179 69.315 947.93 64.1181 948.05 62.4637L948.42 57.3312L1085.98 50.1218C1095.52 49.6219 1107.94 51.3285 1119.83 54.6758C1128.84 57.2093 1137.95 60.7935 1145.53 65.3763L1151.89 46.6676L1451.79 30.9506L1458.35 41.601L1465.75 30.2193L1681.17 18.9292L1682.02 34.9916C1696.12 28.5218 1725.3 16.6167 1759.76 14.8109C1800.34 12.6839 1824.43 20.6834 1840.95 27.0916L1843.9 10.4013L1966.16 3.99367L2036.24 77.3382L2035.99 79.9902C2034.1 99.8563 2028.87 146.525 2024.13 188.159C2021.75 208.991 2019.5 228.584 2017.83 242.97C2017 250.162 2016.32 256.053 2015.84 260.146L2015.1 266.508L2015.1 266.528L2015.1 266.533L2015.08 266.68L2015.06 266.825C2009.38 300.665 1998.4 323.669 1979.42 338.429C1960.62 353.054 1934.97 358.771 1901.91 360.504L755.185 420.601L757.881 472.041L647.633 426.238L71.4015 456.437L15.1127 395.367L50.7946 104.374L381.652 87.0343C401.914 85.9724 415.438 91.7317 424.725 96.9096C425.128 93.7887 425.509 90.7899 425.643 89.6063L426.199 84.6997L556.104 77.8916L554.446 89.2412C569.802 82.8091 581.65 79.3107 592.523 77.3089C603.437 75.2995 613.284 74.8275 624.255 74.3016C626.274 74.2048 628.331 74.1062 630.441 73.9958C681.697 70.318 718.231 90.8364 736.932 109.634L742.032 68.1476L896.804 60.0363C908.037 59.4476 919.581 62.042 929.61 65.947C935.755 68.3397 941.493 71.2876 946.392 74.4532Z" fill="white"/>
<path d="M1711.68 215.861C1712.43 230.19 1723.1 236.814 1743.69 235.735C1764.49 234.645 1774.55 227.663 1773.87 214.788C1773.51 207.935 1769.68 202.514 1762.39 198.524C1755.09 194.534 1746.26 191.352 1735.92 188.979C1725.79 186.595 1715.53 183.801 1705.14 180.597C1694.95 177.175 1686.11 171.599 1678.61 163.871C1671.11 155.936 1667.03 145.842 1666.39 133.59C1663.66 81.4682 1695.88 53.647 1763.05 50.1265C1787.59 48.8404 1806.35 52.5427 1819.32 61.2333C1832.48 69.7054 1839.49 82.1439 1840.35 98.5488C1840.67 104.571 1840.14 110.429 1838.77 116.123C1837.6 121.598 1836.24 125.522 1834.7 127.893L1832.4 131.762L1777.18 134.655C1781.51 129.639 1783.48 123.498 1783.1 116.23C1782.39 102.732 1773.2 96.4462 1755.52 97.3726C1733.27 98.5388 1722.51 106.182 1723.25 120.303C1723.62 127.363 1727.45 132.785 1734.74 136.567C1742.03 140.35 1750.73 143.226 1760.84 145.194C1771.15 146.944 1781.49 149.318 1791.87 152.314C1802.25 155.31 1811.19 160.776 1818.69 168.711C1826.19 176.44 1830.28 186.845 1830.96 199.927C1832.35 226.3 1825.47 246.337 1810.34 260.041C1795.2 273.536 1771.2 281.145 1738.34 282.867C1705.48 284.589 1682.72 279.952 1670.04 268.955C1660.64 260.702 1655.54 248.892 1654.74 233.526C1654.43 227.711 1654.72 221.345 1655.61 214.427L1656.29 209.394L1712.44 206.451L1712.01 210.222C1711.7 212.32 1711.59 214.2 1711.68 215.861Z" fill="white"/>
<path d="M1647.71 58.3242L1620.25 284.749L1563.92 287.701L1591.69 61.2601L1647.71 58.3242Z" fill="white"/>
<path d="M1567.19 62.5439L1485.33 180.265L1539.41 288.986L1475.59 292.331L1441.32 222.256L1393.71 296.622L1329.89 299.967L1406.56 184.393L1357.67 73.5246L1421.49 70.1798L1451.15 141.746L1503.37 65.8887L1567.19 62.5439Z" fill="white"/>
<path d="M1260.86 303.584L1260.17 254.561L1208 257.295L1195.25 307.023L1135.58 310.15L1204.12 81.5722L1307.22 76.1687L1320.23 300.473L1260.86 303.584ZM1239.15 134.42L1218.62 214.866L1259.55 212.721L1258.84 133.388L1239.15 134.42Z" fill="white"/>
<path d="M1063.37 88.9484C1086.98 87.7108 1104.04 92.0252 1114.52 101.892C1122.39 109.395 1126.64 119.172 1127.28 131.221C1127.49 135.376 1127.31 139.761 1126.72 144.375L1123.64 168.909C1121.87 182.543 1118.09 193.678 1112.31 202.314C1106.74 210.939 1100.31 217.212 1093.04 221.135L1126.09 310.648L1063.32 313.937L1032.83 231.478L1013.56 232.487L1005.22 316.982L945.56 320.109L973.263 93.6707L1063.37 88.9484ZM1046.34 138.588L1023.04 139.809L1017.8 194.455L1039.55 193.315C1050.53 192.74 1058.27 189.73 1062.76 184.287C1067.24 178.636 1069.25 171.448 1068.79 162.722C1067.91 145.894 1060.43 137.85 1046.34 138.588Z" fill="white"/>
<path d="M857.126 256.31L820.103 258.25L811.546 327.132L755.544 330.067L783.298 103.626L878.19 98.6529C901.627 97.4246 918.607 101.951 929.129 112.232C936.824 120.162 941.009 130.567 941.684 143.447C941.913 147.81 941.738 152.402 941.159 157.224L936.782 192.764C934.574 210.17 926.194 224.879 911.64 236.891C897.076 248.695 878.905 255.168 857.126 256.31ZM861.137 148.294L833.136 149.761L825.955 209.196L853.645 207.745C870.653 206.854 880.108 198.755 882.01 183.447L883.518 170.557C883.835 168.665 883.911 166.161 883.748 163.045C883.585 159.929 881.85 156.583 878.542 153.006C875.235 149.43 869.433 147.859 861.137 148.294Z" fill="white"/>
<path d="M588.516 343.126C558.939 344.676 538.125 339.312 526.074 327.033C517.735 318.308 513.136 305.743 512.276 289.339C511.906 282.278 512.233 274.661 513.257 266.486L522.222 194.178C528.776 141.153 561.01 113.123 618.924 110.088C642.917 108.83 661.39 113.068 674.344 122.8C687.288 132.325 694.227 146.017 695.163 163.875C695.599 172.181 694.793 180.553 692.746 188.989C690.895 197.207 688.936 203.348 686.867 207.413L683.781 213.822L628.867 216.7C635.279 208.451 638.104 197.059 637.342 182.523C636.939 174.839 634.659 168.92 630.5 164.765C626.331 160.403 620.42 158.422 612.767 158.823C591.877 159.918 580.076 172.197 577.365 195.661L569.804 259.15C569.053 264.603 568.813 269.926 569.085 275.117C569.804 288.822 578.333 295.247 594.673 294.391C614.322 293.361 625.529 281.633 628.295 259.208L684.14 256.281L683.062 265.396C677.324 314.213 645.809 340.124 588.516 343.126Z" fill="white"/>
<path d="M508.681 118.019L481.226 344.444L424.894 347.396L452.661 120.954L508.681 118.019Z" fill="white"/>
<path d="M339.68 283.428L302.657 285.369L294.099 354.25L238.098 357.185L265.851 130.745L360.743 125.772C384.181 124.543 401.161 129.07 411.683 139.351C419.378 147.28 423.563 157.686 424.238 170.566C424.467 174.929 424.292 179.521 423.712 184.343L419.335 219.882C417.128 237.289 408.747 251.998 394.194 264.01C379.63 275.814 361.459 282.287 339.68 283.428ZM343.69 175.412L315.689 176.88L308.509 236.315L336.199 234.864C353.207 233.972 362.662 225.873 364.563 210.566L366.072 197.675C366.388 195.784 366.465 193.28 366.302 190.164C366.139 187.048 364.403 183.701 361.096 180.125C357.789 176.548 351.987 174.977 343.69 175.412Z" fill="white"/>
<path d="M213.678 358.465L57.7431 366.637L85.434 140.2L241.369 132.027L235.219 181.097L135.197 186.339L130.257 228.782L212.884 224.452L206.734 273.521L124.107 277.852L119.806 314.637L219.828 309.395L213.678 358.465Z" fill="white"/>
<path d="M1906.82 194.715L1866.29 196.839L1880.4 46.1296L1932.19 43.4149L1906.82 194.715ZM1850.73 255.488C1850.1 243.425 1852.48 234.512 1857.88 228.748C1863.28 222.795 1872.17 219.494 1884.56 218.845C1901.62 217.951 1910.52 224.477 1911.25 238.425C1911.87 250.299 1909.38 259.124 1903.78 264.898C1898.38 270.662 1889.48 273.869 1877.09 274.518C1860.23 275.402 1851.44 269.059 1850.73 255.488Z" fill="white"/>
<defs>
<linearGradient id="paint0_linear_997_1908" x1="15.0812" y1="306.437" x2="2825.56" y2="159.145" gradientUnits="userSpaceOnUse">
<stop stop-color="#3182F6"/>
<stop offset="1" stop-color="#A009FF"/>
</linearGradient>
</defs>
</svg>
