<svg width="354" height="77" viewBox="0 0 354 77" fill="none" xmlns="http://www.w3.org/2000/svg">
<path fill-rule="evenodd" clip-rule="evenodd" d="M130.789 10.8914C130.335 10.0856 124.404 0.0160636 111.607 0.0185583C101.298 0.0179373 98.1302 3.55604 96.397 5.7334L97.4283 0.017627L77.3246 0.016416L76.0356 5.73217C76.242 1.59501 71.8262 0.19754 69.5924 0.0159502L8.50831 0.0122705L0 50.3655L7.21604 61.5254L109.474 61.531L87.6306 61.5303L109.504 61.5316L134.88 76.9491V61.5318L324.736 61.5318C324.774 61.5238 324.811 61.5158 324.848 61.5078H334.563C339.559 60.4363 344.823 57.4313 346.292 48.4211L353.152 12.6655L343.353 0L327.674 0.00101343L326.204 6.06978C324.722 3.55758 321.399 1.23114 316.019 0.361674C314.973 0.14149 313.876 0.0185926 312.732 0.0185924C312.618 0.0185924 312.503 0.0189152 312.389 0.0195573C312.021 0.00729156 311.644 0.00102783 311.261 0.00102783C303.817 0.00102783 298.809 1.35517 296.145 3.14005C296.617 1.35624 296.934 0.34897 297.054 0.0185898L295.576 0.0185896C295.578 0.012537 295.58 0.00668325 295.582 0.00102785L278.189 0.00102786L278.186 0.0185866L277.209 0.0185865V0.00102788L262.266 0.00102787L257.336 6.34062L254.673 0.0185826L253.209 0.0185824L253.202 0.00102783L235.073 0.00102787L235.077 0.0185793L233.855 0.0185791L233.849 0.00102787L210.086 0.00102784L207.242 7.19895C206.016 4.01792 203.295 0.0185739 198.574 0.0185731C198.281 0.0185731 197.969 0.0185715 197.639 0.0185685C197.463 0.00696662 197.284 0.00102786 197.102 0.00102786C191.223 0.00102786 177.341 0.000408535 171.135 9.88862e-05L170.673 3.81576C169.244 1.95347 166.544 0.0190815 162.072 0.0185669C161.831 0.0185392 161.582 0.0185131 161.326 0.0184885C161.09 0.0069893 160.848 0.00105626 160.601 0.00102787C154.133 0.000284708 138.084 -0.000210761 132.777 9.88877e-05L130.789 10.8914Z" fill="#3182F6"/>
<path d="M104.761 45.9074C99.6877 45.9074 96.175 44.8075 94.2236 42.6077C92.8753 41.0465 92.2012 38.8644 92.2012 36.0614C92.2012 34.855 92.3254 33.56 92.5737 32.1762L94.7558 19.9353C96.3525 10.9586 102.118 6.47021 112.053 6.47021C116.169 6.47021 119.291 7.35724 121.42 9.13129C123.549 10.8699 124.613 13.2648 124.613 16.3162C124.613 17.7354 124.4 19.1547 123.974 20.5739C123.584 21.9577 123.194 22.9866 122.804 23.6608L122.218 24.7252H112.798C113.969 23.3769 114.554 21.461 114.554 18.9773C114.554 17.6645 114.217 16.6355 113.543 15.8904C112.869 15.1098 111.875 14.7196 110.563 14.7196C106.979 14.7196 104.85 16.7065 104.176 20.6804L102.313 31.4311C102.136 32.3536 102.047 33.2584 102.047 34.1454C102.047 36.4872 103.449 37.658 106.252 37.658C109.622 37.658 111.645 35.7598 112.319 31.9633H121.899L121.633 33.5068C120.213 41.7738 114.59 45.9074 104.761 45.9074Z" fill="white"/>
<path d="M90.4835 6.3457L83.7776 44.6652H74.1445L80.9037 6.3457H90.4835Z" fill="white"/>
<path d="M58.194 33.0097H51.8606L49.785 44.6652H40.2051L46.9642 6.3457H63.1968C67.2061 6.3457 70.0624 7.26821 71.7655 9.11322C73.0073 10.5325 73.6282 12.342 73.6282 14.5418C73.6282 15.2869 73.5573 16.0675 73.4153 16.8836L72.3509 22.8976C71.8187 25.8425 70.2575 28.273 67.6674 30.189C65.0773 32.0695 61.9195 33.0097 58.194 33.0097ZM59.8438 14.6483H55.0539L53.2976 24.7071H58.0343C60.9437 24.7071 62.6291 23.4121 63.0904 20.822L63.4629 18.6399C63.5339 18.3206 63.5693 17.8948 63.5693 17.3626C63.5693 16.8303 63.3032 16.2449 62.771 15.6063C62.2388 14.9676 61.2631 14.6483 59.8438 14.6483Z" fill="white"/>
<path d="M34.0746 44.6652H7.35742L14.1166 6.3457H40.8338L39.3436 14.6483H22.2062L20.9821 21.8332H35.1391L33.6489 30.1357H19.4919L18.4275 36.3627H35.5648L34.0746 44.6652Z" fill="white"/>
<path d="M333.841 31.7727H327.291L330.837 5.95068H339.209L333.841 31.7727ZM324.287 41.7306C324.287 39.6479 324.747 38.1347 325.666 37.191C326.585 36.2147 328.046 35.7266 330.049 35.7266C332.807 35.7266 334.186 36.9306 334.186 39.3387C334.186 41.3889 333.71 42.8858 332.758 43.8295C331.838 44.7732 330.377 45.2451 328.375 45.2451C325.65 45.2451 324.287 44.0736 324.287 41.7306Z" fill="white"/>
<path d="M299.727 33.8373C299.727 36.2855 301.483 37.5096 304.996 37.5096C308.544 37.5096 310.318 36.4097 310.318 34.2099C310.318 33.039 309.715 32.081 308.508 31.3359C307.302 30.5908 305.83 29.9699 304.091 29.4732C302.388 28.9764 300.667 28.4087 298.929 27.7701C297.225 27.0959 295.771 26.067 294.564 24.6832C293.358 23.264 292.755 21.5077 292.755 19.4143C292.755 10.5085 298.485 6.05566 309.945 6.05566C314.132 6.05566 317.29 6.85399 319.419 8.45063C321.583 10.0118 322.665 12.1939 322.665 14.9969C322.665 16.0258 322.523 17.0193 322.24 17.9773C321.991 18.8998 321.725 19.5562 321.441 19.9465L321.015 20.5851H311.595C312.376 19.7691 312.766 18.7401 312.766 17.4983C312.766 15.192 311.258 14.0389 308.242 14.0389C304.446 14.0389 302.548 15.2453 302.548 17.658C302.548 18.8643 303.151 19.8223 304.357 20.5319C305.563 21.2415 307.018 21.8092 308.721 22.235C310.46 22.6253 312.198 23.122 313.937 23.7252C315.676 24.3284 317.148 25.3396 318.354 26.7588C319.561 28.1426 320.164 29.9521 320.164 32.1874C320.164 36.6935 318.816 40.0465 316.119 42.2463C313.423 44.4107 309.271 45.4928 303.665 45.4928C298.059 45.4928 294.227 44.4994 292.169 42.5124C290.644 41.0222 289.881 38.9643 289.881 36.3387C289.881 35.3453 289.987 34.2631 290.2 33.0922L290.36 32.2407H299.94L299.833 32.8793C299.762 33.2341 299.727 33.5535 299.727 33.8373Z" fill="white"/>
<path d="M288.749 6.42822L282.043 44.7477H272.41L279.169 6.42822H288.749Z" fill="white"/>
<path d="M274.993 6.42822L259.985 25.7476L268.234 44.7477H257.324L252.108 32.5068L243.326 44.7477H232.416L246.52 25.7476L239.175 6.42822H250.086L254.503 18.8821L264.083 6.42822H274.993Z" fill="white"/>
<path d="M220.619 44.7477L220.939 36.392H212.051L209.443 44.7477H199.277L212.955 6.42822H230.518L230.731 44.7477H220.619ZM218.437 15.742L214.233 29.2603H221.205L221.79 15.742H218.437Z" fill="white"/>
<path d="M188.939 6.42822C192.984 6.42822 195.858 7.31525 197.561 9.0893C198.839 10.4376 199.477 12.1407 199.477 14.1986C199.477 14.9082 199.406 15.6533 199.264 16.4339L198.519 20.5852C198.094 22.8914 197.348 24.7542 196.284 26.1734C195.255 27.5927 194.102 28.6039 192.825 29.207L197.668 44.7477H186.917L182.446 30.4311H179.147L176.965 44.7477H166.746L173.505 6.42822H188.939ZM185.587 14.7308H181.595L180.211 23.9913H183.937C185.817 23.9913 187.165 23.5478 187.981 22.6608C188.798 21.7383 189.206 20.5319 189.206 19.0417C189.206 16.1678 187.999 14.7308 185.587 14.7308Z" fill="white"/>
<path d="M150.796 33.0922H144.462L142.387 44.7477H132.807L139.566 6.42822H155.798C159.808 6.42822 162.664 7.35073 164.367 9.19574C165.609 10.615 166.23 12.4245 166.23 14.6243C166.23 15.3694 166.159 16.15 166.017 16.9661L164.952 22.9801C164.42 25.9251 162.859 28.3555 160.269 30.2715C157.679 32.152 154.521 33.0922 150.796 33.0922ZM152.445 14.7308H147.655L145.899 24.7897H150.636C153.545 24.7897 155.231 23.4946 155.692 20.9045L156.064 18.7224C156.135 18.4031 156.171 17.9773 156.171 17.4451C156.171 16.9129 155.905 16.3274 155.373 15.6888C154.84 15.0501 153.865 14.7308 152.445 14.7308Z" fill="white"/>
</svg>
