<svg width="3567" height="550" viewBox="0 0 3567 550" fill="none" xmlns="http://www.w3.org/2000/svg">
<path fill-rule="evenodd" clip-rule="evenodd" d="M399.907 56.7018C455.288 80.3182 506.938 102.343 576.144 102.343C663.211 102.343 713.327 77.2561 763.935 51.9235C815.543 26.0895 867.662 0 960 0C1033.72 0 1082.45 24.6892 1128.97 48.2562L1132.47 50.0281L1134.79 51.1991C1267.17 107.49 1331.34 77.3954 1401.36 44.5571C1447.58 22.8763 1496.36 0 1569 0C1661.34 0 1713.46 26.0895 1765.07 51.9235C1815.67 77.2561 1865.79 102.343 1952.86 102.343C2021.19 102.343 2072.41 80.87 2127 57.5941V57.5892C2127.04 57.5725 2127.09 57.5558 2127.13 57.5391C2127.78 57.2603 2128.44 56.9811 2129.09 56.7018C2137.84 52.9731 2146.67 49.2048 2155.69 45.4773C2160.68 43.2305 2165.54 40.9893 2170.35 38.7749C2213.68 18.819 2252.27 1.04407 2335.19 1.00012C2335.88 0.957764 2336.58 0.916626 2337.27 0.876709C2343.47 0.461914 2349.57 0.220581 2355.59 0.140381C2358.61 0.069458 2361.67 0.0223389 2364.76 0C2369.89 0 2375.23 0.253662 2380.72 0.739502C2448.82 4.89954 2505.79 29.0054 2561.78 52.6915C2621.02 77.7522 2679.14 102.343 2748.14 102.343C2835.21 102.343 2885.33 77.2561 2935.93 51.9235C2987.54 26.0895 3039.66 0 3132 0C3205.22 0 3254.2 24.309 3300.76 47.4185C3370.48 82.0265 3434.79 113.944 3567 57.5V140.187V151.952V550H2574H2127H1395H1134H0V140H0.0283203L0 50.8477C44.9443 22.8308 114.35 0 164.245 0C268.716 0.757446 336.739 29.7649 399.907 56.7018Z" fill="url(#paint0_linear_916_534)"/>
<defs>
<linearGradient id="paint0_linear_916_534" x1="0" y1="337.515" x2="3567" y2="337.515" gradientUnits="userSpaceOnUse">
<stop stop-color="#357EF6"/>
<stop offset="0.147413" stop-color="#5160F8"/>
<stop offset="0.292636" stop-color="#6D41FA"/>
<stop offset="0.418857" stop-color="#5160F8"/>
<stop offset="0.547793" stop-color="#357EF6"/>
<stop offset="0.682158" stop-color="#5160F8"/>
<stop offset="0.801593" stop-color="#6D41FA"/>
<stop offset="0.899313" stop-color="#515FF8"/>
<stop offset="1" stop-color="#357EF6"/>
</linearGradient>
</defs>
</svg>
