<svg width="4475" height="550" viewBox="0 0 4475 550" fill="none" xmlns="http://www.w3.org/2000/svg">
<path fill-rule="evenodd" clip-rule="evenodd" d="M326 0C232.798 0 193.348 22.7412 150.27 47.5737C114.08 68.4352 75.3301 90.7728 0 102.343V140.187V151.952V550H798H1440H2237H2238H3035H3677H4475V151.952V140.187V102C4367.56 118.592 4302.4 86.9456 4235.88 54.6344C4180.12 27.5507 4123.39 0 4040 0C3947.66 0 3895.54 26.0895 3843.93 51.9234C3793.33 77.2561 3743.21 102.343 3656.14 102.343C3586.99 102.343 3543.37 80.4576 3496.57 56.9759C3450.7 33.9556 3401.76 9.40123 3322.71 2.4292C3312.41 0.85498 3301.38 0 3289.5 0C3197.16 0 3155.08 26.0895 3113.4 51.9234C3072.54 77.2561 3032.07 102.343 2945 102.343C2856.52 102.343 2803.79 76.4355 2751.39 50.6903C2699.64 25.2659 2648.21 0 2563 0C2469.8 0 2430.35 22.7412 2387.27 47.5737C2351.24 68.3427 2312.67 90.5747 2238 102.189V102C2130.56 118.592 2065.4 86.9456 1998.88 54.6344C1943.12 27.5507 1886.39 0 1803 0C1710.66 0 1658.54 26.0895 1606.93 51.9234C1556.33 77.2561 1506.21 102.343 1419.14 102.343C1349.99 102.343 1306.37 80.4576 1259.57 56.9759C1213.7 33.9556 1164.76 9.40123 1085.71 2.4292C1075.41 0.85498 1064.38 0 1052.5 0C960.163 0 918.076 26.0895 876.402 51.9234C835.536 77.2561 795.066 102.343 708 102.343C619.521 102.343 566.789 76.4355 514.387 50.6903C462.638 25.2659 411.212 0 326 0Z" fill="url(#paint0_linear_916_569)"/>
<defs>
<linearGradient id="paint0_linear_916_569" x1="0" y1="275" x2="4475" y2="275" gradientUnits="userSpaceOnUse">
<stop stop-color="#4B66F8"/>
<stop offset="0.2" stop-color="#7934FC"/>
<stop offset="0.5" stop-color="#4B66F8"/>
<stop offset="0.75" stop-color="#7934FC"/>
<stop offset="1" stop-color="#4B66F8"/>
</linearGradient>
</defs>
</svg>
